<svg xmlns="http://www.w3.org/2000/svg" viewBox="0 0 1400 900">
<defs>
<linearGradient id="sky3" x1="0" y1="0" x2="0" y2="1"><stop stop-color="#88d6d0"/><stop offset="1" stop-color="#edf7f4"/></linearGradient>
<linearGradient id="pool" x1="0" y1="0" x2="1" y2="1"><stop stop-color="#4cc5d6"/><stop offset="1" stop-color="#176f9a"/></linearGradient>
<filter id="sh"><feDropShadow dx="0" dy="24" stdDeviation="24" flood-color="#000" flood-opacity=".2"/></filter>
</defs>
<rect width="1400" height="900" fill="url(#sky3)"/>
<g filter="url(#sh)">
<rect x="230" y="230" width="390" height="390" rx="24" fill="#f8f5ef"/>
<rect x="790" y="185" width="360" height="435" rx="24" fill="#f5f1ea"/>
</g>
<g fill="#25313a">
<path d="M280 285h290v65H280zM280 390h290v65H280zM280 495h290v65H280z"/>
<path d="M840 245h260v65H840zM840 350h260v65H840zM840 455h260v65H840z"/>
</g>
<rect x="90" y="650" width="1220" height="180" rx="90" fill="url(#pool)"/>
<path d="M120 700c210 80 390-70 610 0s350 45 550-10" fill="none" stroke="#d9ffff" stroke-width="12" opacity=".72"/>
<g fill="#5d8b62"><circle cx="160" cy="610" r="70"/><circle cx="690" cy="610" r="85"/><circle cx="1230" cy="600" r="76"/></g>
</svg>